<svg width="20" height="20" viewBox="0 0 20 20" fill="none" xmlns="http://www.w3.org/2000/svg">
<path d="M19.8348 2.65076L19.4518 2.57416C18.7422 2.43223 18.0236 2.46348 17.3492 2.65076C17.5365 1.9764 17.5677 1.25772 17.4258 0.548177L17.3492 0.165187L16.9662 0.0885966C15.4767 -0.209328 13.9462 0.254119 12.8722 1.32818L8.34226 5.85809L6.72781 4.24364L7.55632 3.41513L4.65652 0.515291C3.97127 -0.169959 2.85624 -0.169998 2.17099 0.515291C1.86217 0.824112 1.68262 1.22769 1.65907 1.66043C1.22632 1.68398 0.822788 1.86349 0.513967 2.17235C-0.171322 2.85764 -0.171322 3.97263 0.513967 4.65792L3.41377 7.55772L4.24228 6.72921L5.85673 8.34366L0.688785 13.5115C-0.224908 14.4252 -0.224908 15.9119 0.688785 16.8256C1.16465 17.3015 1.81682 17.5483 2.49434 17.5056C2.45352 18.1542 2.67978 18.8166 3.17435 19.3111C4.08801 20.2248 5.5747 20.2249 6.48843 19.3111L11.6564 14.1432L15.0247 17.5116L14.1962 18.3401L15.0247 19.1686L15.8533 18.3401L17.5103 19.9971L18.3388 19.1686L16.6817 17.5116L17.5102 16.6831L19.1673 18.3401L19.9958 17.5116L18.3388 15.8546L19.1673 15.0261L18.3388 14.1976L17.5103 15.0261L14.142 11.6577L18.6718 7.12779C19.7459 6.05373 20.2093 4.52321 19.9114 3.03371L19.8348 2.65076ZM3.41377 5.90066L1.34244 3.82933C1.11403 3.60093 1.11403 3.22922 1.34244 3.00082C1.57135 2.77187 1.94196 2.77187 2.17095 3.00082L4.24224 5.07211L3.41377 5.90066ZM2.9995 2.17231C2.77059 1.9434 2.77051 1.57279 2.9995 1.3438C3.22794 1.1154 3.5996 1.11536 3.82801 1.3438L5.8993 3.41509L5.07079 4.2436L2.9995 2.17231ZM5.07079 5.90066L5.8993 5.07215L7.51375 6.6866L6.68524 7.51511L5.07079 5.90066ZM1.51729 15.9971C1.06045 15.5402 1.06045 14.7969 1.51729 14.34L13.7007 2.15669C14.3959 1.46148 15.3546 1.10653 16.3326 1.18179C16.4075 2.15364 16.0573 3.1142 15.3577 3.81375L3.17435 15.9971C2.71751 16.4539 1.97418 16.4539 1.51729 15.9971V15.9971ZM16.6818 15.8546L15.8533 16.6831L12.4849 13.3147L13.3134 12.4862L16.6818 15.8546ZM17.8433 6.29928L5.65992 18.4827C5.20308 18.9395 4.45975 18.9395 4.00286 18.4827C3.54602 18.0258 3.54602 17.2825 4.00286 16.8256L16.1863 4.64226C16.8858 3.94271 17.8466 3.59261 18.8182 3.66736C18.893 4.63917 18.5429 5.59973 17.8433 6.29928V6.29928Z" fill="url(#paint0_linear_951_4973)"/>
<defs>
<linearGradient id="paint0_linear_951_4973" x1="-2.18776e-07" y1="9.99902" x2="20" y2="9.99902" gradientUnits="userSpaceOnUse">
<stop stop-color="#954396"/>
<stop offset="1" stop-color="#DB2430"/>
</linearGradient>
</defs>
</svg>
