<svg width="72" height="72" viewBox="0 0 72 72" fill="none" xmlns="http://www.w3.org/2000/svg">
<circle cx="36" cy="36" r="35.5" transform="rotate(180 36 36)" fill="url(#paint0_linear_941_4936)" stroke="url(#paint1_linear_941_4936)"/>
<path d="M24.3996 37.4707L33.428 46.4993C33.6857 46.757 34.0292 46.8984 34.3955 46.8984C34.7621 46.8984 35.1054 46.7568 35.3631 46.4993L36.1828 45.6793C36.4404 45.422 36.5822 45.0783 36.5822 44.7119C36.5822 44.3456 36.4404 43.9903 36.1828 43.733L30.9158 38.4544L47.6494 38.4544C48.4039 38.4544 49 37.8638 49 37.1091L49 35.9499C49 35.1953 48.4039 34.5451 47.6494 34.5451L30.8561 34.5451L36.1826 29.237C36.4402 28.9793 36.582 28.6449 36.582 28.2785C36.582 27.9124 36.4402 27.5732 36.1826 27.3157L35.3629 26.4984C35.1052 26.2407 34.7619 26.1002 34.3953 26.1002C34.029 26.1002 33.6855 26.2425 33.4278 26.5002L24.3994 35.5286C24.1411 35.7871 23.999 36.1323 24 36.4991C23.9992 36.8672 24.1411 37.2125 24.3996 37.4707Z" fill="white"/>
<defs>
<linearGradient id="paint0_linear_941_4936" x1="72" y1="36" x2="3.14722e-06" y2="36" gradientUnits="userSpaceOnUse">
<stop stop-color="#954396"/>
<stop offset="1" stop-color="#DB2430"/>
</linearGradient>
<linearGradient id="paint1_linear_941_4936" x1="70.56" y1="36" x2="-0.719998" y2="36.72" gradientUnits="userSpaceOnUse">
<stop stop-color="#954396"/>
<stop offset="1" stop-color="#DB2430"/>
</linearGradient>
</defs>
</svg>
