<svg width="121" height="121" viewBox="0 0 121 121" fill="none" xmlns="http://www.w3.org/2000/svg">
<g clip-path="url(#clip0_621_9574)">
<path fill-rule="evenodd" clip-rule="evenodd" d="M64.2237 21.9492H90.3577H96.8863C97.2604 21.9492 97.3983 22.284 97.5559 22.6188L100.175 28.0642C100.333 28.399 99.8699 28.7338 99.5056 28.7338H55.0759C52.171 28.7437 57.1339 21.9492 64.2237 21.9492ZM23.467 66.9894V70.6722H27.1498C26.7067 68.8702 25.2788 67.4325 23.467 66.9894ZM27.1498 73.0847H23.467V76.7675C25.2788 76.3244 26.7067 74.8966 27.1498 73.0847ZM21.0643 76.7675V73.0847H17.3815C17.8247 74.8966 19.2525 76.3244 21.0643 76.7675ZM17.3717 70.682H21.0545V66.9993C19.2525 67.4424 17.8247 68.8702 17.3717 70.682ZM88.6739 66.9894V70.6722H92.3566C91.9135 68.8702 90.4857 67.4325 88.6739 66.9894ZM92.3566 73.0847H88.6739V76.7675C90.4857 76.3244 91.9135 74.8966 92.3566 73.0847ZM86.2712 76.7675V73.0847H82.5884C83.0217 74.8966 84.4495 76.3244 86.2712 76.7675ZM82.5786 70.682H86.2613V66.9993C84.4495 67.4424 83.0217 68.8702 82.5786 70.682ZM88.2898 34.5238H91.756C96.7582 34.7503 98.8163 34.5731 100.805 36.0895C103.267 37.9703 104.232 46.2812 105.256 50.1215C105.325 50.3775 105.03 50.6139 104.764 50.6139H89.4912C89.2253 50.6139 89.0284 50.3972 88.9988 50.1215L87.7975 35.0063C87.7778 34.7503 88.024 34.5238 88.2898 34.5238ZM65.0804 34.6125H53.7564C48.5867 34.6125 40.0789 43.1104 37.8535 49.9836C37.7451 50.3184 38.139 50.6237 38.4935 50.6237H63.2883C63.6428 50.6237 63.8791 50.3381 63.9283 49.9836L65.7303 35.2525C65.7599 34.898 65.4251 34.6125 65.0804 34.6125ZM69.9842 34.5534H83.839C84.1048 34.5534 84.3116 34.7799 84.3313 35.0457L85.385 50.1313C85.4046 50.3972 85.1585 50.6237 84.8926 50.6237H68.1822C67.9164 50.6237 67.6603 50.3972 67.6899 50.1313L69.4919 35.0457C69.5214 34.77 69.7085 34.5534 69.9842 34.5534ZM22.2657 61.6425C27.9178 61.6425 32.5065 66.2312 32.5065 71.8834C32.5065 77.5356 27.9178 82.1243 22.2657 82.1243C16.6135 82.1243 12.0248 77.5356 12.0248 71.8834C12.0248 66.2312 16.6135 61.6425 22.2657 61.6425ZM1.78389 62.1053C2.30578 61.869 2.8769 61.7607 3.49726 61.7705C3.46772 58.5407 3.68436 55.7244 4.43273 53.7255C4.70845 52.5734 5.21064 51.7364 5.88024 51.1259C7.9875 49.2451 26.8051 47.5908 30.7735 47.0788C35.6477 42.3128 41.0734 37.9506 46.8536 33.8247C48.4587 32.4658 50.753 31.7962 53.6481 31.7273L99.348 31.6879C102.804 31.6682 105.463 33.1453 107.157 36.4637L110.967 47.4431L111.834 47.2068V42.9332C111.676 41.5054 112.238 40.7964 113.331 40.6191H118.451C119.859 40.6782 120.854 41.3872 121.011 43.4255V58.6096C121.021 60.1753 120.45 61.1994 119.003 61.416H114.247C113.774 61.5243 113.922 61.8887 113.882 62.3909V67.5704C113.538 71.391 112.494 74.3451 109.431 74.7292H100.165C100.362 70.2389 99.5154 66.566 97.4574 63.8187C89.9835 53.8338 73.7655 59.7814 74.8585 74.7587H35.0372C35.372 69.9731 34.4661 66.3395 32.4869 63.7301C25.0327 53.8929 7.69209 59.2004 9.74027 75.064H3.58589C-0.126433 75.064 -1.33761 63.4937 1.78389 62.1053ZM87.4725 61.6425C93.1247 61.6425 97.7134 66.2312 97.7134 71.8834C97.7134 77.5356 93.1247 82.1243 87.4725 82.1243C81.8203 82.1243 77.2316 77.5356 77.2316 71.8834C77.2316 66.2312 81.8105 61.6425 87.4725 61.6425Z" fill="#051036"/>
</g>
<defs>
<clipPath id="clip0_621_9574">
<rect width="121" height="121" fill="white"/>
</clipPath>
</defs>
</svg>
