<svg width="25" height="25" viewBox="0 0 25 25" fill="none" xmlns="http://www.w3.org/2000/svg">
<path d="M12.186 0C9.77569 0.000197778 7.41955 0.715121 5.41554 2.05437C3.41153 3.39361 1.84965 5.29703 0.927399 7.52393C0.0051468 9.75083 -0.236054 12.2012 0.234297 14.5652C0.704648 16.9292 1.86543 19.1006 3.56985 20.8049C5.27427 22.5091 7.44579 23.6697 9.80981 24.1399C12.1738 24.6101 14.6242 24.3687 16.851 23.4462C19.0778 22.5238 20.9811 20.9618 22.3202 18.9576C23.6593 16.9535 24.374 14.5973 24.374 12.187C24.3708 8.95552 23.0857 5.8573 20.8007 3.57229C18.5157 1.28729 15.4175 0.00317695 12.186 0ZM16.874 13.124H7.49901C7.25566 13.1161 7.02495 13.0138 6.85562 12.8389C6.6863 12.6639 6.59163 12.43 6.59163 12.1865C6.59163 11.943 6.6863 11.7091 6.85562 11.5342C7.02495 11.3592 7.25566 11.2569 7.49901 11.249H16.873C17.1218 11.249 17.3604 11.3478 17.5363 11.5237C17.7122 11.6996 17.811 11.9382 17.811 12.187C17.811 12.4358 17.7122 12.6744 17.5363 12.8503C17.3604 13.0262 17.1218 13.125 16.873 13.125L16.874 13.124Z" fill="white"/>
</svg>
