<svg width="20" height="16" viewBox="0 0 20 16" fill="none" xmlns="http://www.w3.org/2000/svg">
<path d="M17.8451 6.45016H17.4896V2.20958C17.4896 0.986933 16.5229 -0.0078125 15.3346 -0.0078125H4.66539C3.47715 -0.0078125 2.51047 0.986933 2.51047 2.20958V6.45016H2.15492C0.96668 6.45016 0 7.44486 0 8.66759V13.5111V14.8027C0 15.1357 0.262344 15.4056 0.585938 15.4056C0.909531 15.4056 1.17188 15.1357 1.17188 14.8027V14.114H18.8281V14.8027C18.8281 15.1357 19.0905 15.4056 19.4141 15.4056C19.7377 15.4056 20 15.1357 20 14.8027V13.5111V8.66759C20 7.44486 19.0333 6.45016 17.8451 6.45016ZM3.68234 2.20958C3.68234 1.65184 4.12332 1.19804 4.66539 1.19804H15.3346C15.8768 1.19804 16.3178 1.65184 16.3178 2.20958V6.45016H14.1133C14.2652 6.1466 14.3516 5.8029 14.3516 5.43861V4.7928C14.3516 3.57014 13.3849 2.5754 12.1967 2.5754H7.80344C6.61516 2.5754 5.64844 3.57014 5.64844 4.7928V5.43861C5.64844 5.8029 5.7348 6.1466 5.88672 6.45016H3.68234V2.20958ZM6.82031 5.43861V4.7928C6.82031 4.23505 7.26133 3.78125 7.80344 3.78125H12.1967C12.7387 3.78125 13.1797 4.23505 13.1797 4.7928V5.43861C13.1797 5.99635 12.7387 6.45016 12.1967 6.45016H7.80344C7.26133 6.45016 6.82031 5.99635 6.82031 5.43861ZM2.15492 7.656H3.09641H7.80344H12.1967H16.9037H17.8451C18.3872 7.656 18.8282 8.10981 18.8282 8.66759V10.325H1.17188V8.66759C1.17188 8.10981 1.61285 7.656 2.15492 7.656ZM1.17188 11.5308H18.8281V12.9082H1.17188V11.5308Z" fill="white"/>
</svg>
