<svg width="50" height="50" viewBox="0 0 50 50" fill="none" xmlns="http://www.w3.org/2000/svg">
<circle cx="24.9981" cy="25" r="24.5" transform="rotate(-180 24.9981 25)" fill="#172652" stroke="#172652"/>
<g clip-path="url(#clip0_127_903)">
<path d="M30.8062 25.5341L26.4726 21.2004C26.3489 21.0767 26.184 21.0088 26.0082 21.0088C25.8322 21.0088 25.6674 21.0768 25.5437 21.2004L25.1503 21.594C25.0267 21.7175 24.9586 21.8824 24.9586 22.0583C24.9586 22.2341 25.0267 22.4047 25.1503 22.5282L27.6785 25.0619L19.6463 25.0619C19.2842 25.0619 18.998 25.3454 18.998 25.7077L18.998 26.2641C18.998 26.6263 19.2842 26.9384 19.6463 26.9384L27.7071 26.9384L25.1504 29.4863C25.0268 29.61 24.9587 29.7705 24.9587 29.9464C24.9587 30.1221 25.0268 30.2849 25.1504 30.4085L25.5438 30.8008C25.6675 30.9245 25.8323 30.9919 26.0083 30.9919C26.1841 30.9919 26.349 30.9236 26.4727 30.7999L30.8063 26.4663C30.9303 26.3422 30.9985 26.1766 30.998 26.0005C30.9984 25.8238 30.9303 25.658 30.8062 25.5341Z" fill="white"/>
</g>
<defs>
<clipPath id="clip0_127_903">
<rect width="12" height="12" fill="white" transform="translate(18.998 20)"/>
</clipPath>
</defs>
</svg>
