<svg width="72" height="72" viewBox="0 0 72 72" fill="none" xmlns="http://www.w3.org/2000/svg">
<g filter="url(#filter0_di_127_780)">
<rect x="16" y="12" width="32" height="32" rx="16" fill="url(#paint0_linear_127_780)" shape-rendering="crispEdges"/>
<path d="M35.9446 29.5467C35.7719 29.7141 35.6926 29.9561 35.7319 30.1934L36.3246 33.4734C36.3746 33.7514 36.2573 34.0328 36.0246 34.1934C35.7966 34.3601 35.4933 34.3801 35.2446 34.2468L32.2919 32.7067C32.1893 32.6521 32.0753 32.6228 31.9586 32.6194H31.7779C31.7153 32.6288 31.6539 32.6487 31.5979 32.6794L28.6446 34.2268C28.4986 34.3001 28.3333 34.3261 28.1713 34.3001C27.7766 34.2254 27.5133 33.8494 27.5779 33.4528L28.1713 30.1727C28.2106 29.9334 28.1313 29.6901 27.9586 29.5201L25.5513 27.1867C25.3499 26.9914 25.2799 26.6981 25.3719 26.4334C25.4613 26.1694 25.6893 25.9767 25.9646 25.9334L29.2779 25.4527C29.5299 25.4267 29.7513 25.2734 29.8646 25.0467L31.3246 22.0534C31.3593 21.9867 31.4039 21.9254 31.4579 21.8734L31.5179 21.8267C31.5493 21.7921 31.5853 21.7634 31.6253 21.7401L31.6979 21.7134L31.8113 21.6667H32.0919C32.3426 21.6927 32.5633 21.8427 32.6786 22.0667L34.1579 25.0467C34.2646 25.2647 34.4719 25.4161 34.7113 25.4527L38.0246 25.9334C38.3046 25.9734 38.5386 26.1667 38.6313 26.4334C38.7186 26.7007 38.6433 26.9941 38.4379 27.1867L35.9446 29.5467Z" fill="white"/>
</g>
<defs>
<filter id="filter0_di_127_780" x="0" y="0" width="72" height="72" filterUnits="userSpaceOnUse" color-interpolation-filters="sRGB">
<feFlood flood-opacity="0" result="BackgroundImageFix"/>
<feColorMatrix in="SourceAlpha" type="matrix" values="0 0 0 0 0 0 0 0 0 0 0 0 0 0 0 0 0 0 127 0" result="hardAlpha"/>
<feOffset dx="4" dy="8"/>
<feGaussianBlur stdDeviation="10"/>
<feComposite in2="hardAlpha" operator="out"/>
<feColorMatrix type="matrix" values="0 0 0 0 0 0 0 0 0 0 0 0 0 0 0 0 0 0 0.15 0"/>
<feBlend mode="normal" in2="BackgroundImageFix" result="effect1_dropShadow_127_780"/>
<feBlend mode="normal" in="SourceGraphic" in2="effect1_dropShadow_127_780" result="shape"/>
<feColorMatrix in="SourceAlpha" type="matrix" values="0 0 0 0 0 0 0 0 0 0 0 0 0 0 0 0 0 0 127 0" result="hardAlpha"/>
<feOffset dx="7"/>
<feGaussianBlur stdDeviation="10"/>
<feComposite in2="hardAlpha" operator="arithmetic" k2="-1" k3="1"/>
<feColorMatrix type="matrix" values="0 0 0 0 1 0 0 0 0 1 0 0 0 0 1 0 0 0 0.15 0"/>
<feBlend mode="normal" in2="shape" result="effect2_innerShadow_127_780"/>
</filter>
<linearGradient id="paint0_linear_127_780" x1="16" y1="12" x2="48" y2="44" gradientUnits="userSpaceOnUse">
<stop stop-color="#F9EC7D"/>
<stop offset="1" stop-color="#F5B100"/>
</linearGradient>
</defs>
</svg>
