<svg width="26" height="25" viewBox="0 0 26 25" fill="none" xmlns="http://www.w3.org/2000/svg">
<path d="M7.53896 0C3.43391 0 0.0947266 3.27287 0.0947266 7.2937V17.7104C0.0947266 21.7302 3.43701 25 7.54311 25H18.1807C22.2857 25 25.6249 21.7271 25.6249 17.7063V7.28963C25.6249 3.26984 22.2827 0 18.1765 0H7.53896ZM20.3061 4.16667C20.8933 4.16667 21.3699 4.63333 21.3699 5.20833C21.3699 5.78333 20.8933 6.25 20.3061 6.25C19.7189 6.25 19.2424 5.78333 19.2424 5.20833C19.2424 4.63333 19.7189 4.16667 20.3061 4.16667ZM12.8598 6.25C16.3798 6.25 19.2424 9.05313 19.2424 12.5C19.2424 15.9469 16.3798 18.75 12.8598 18.75C9.33985 18.75 6.47728 15.9469 6.47728 12.5C6.47728 9.05313 9.33985 6.25 12.8598 6.25ZM12.8598 8.33333C11.7313 8.33333 10.649 8.77232 9.85107 9.55372C9.05309 10.3351 8.6048 11.3949 8.6048 12.5C8.6048 13.6051 9.05309 14.6649 9.85107 15.4463C10.649 16.2277 11.7313 16.6667 12.8598 16.6667C13.9883 16.6667 15.0706 16.2277 15.8686 15.4463C16.6666 14.6649 17.1149 13.6051 17.1149 12.5C17.1149 11.3949 16.6666 10.3351 15.8686 9.55372C15.0706 8.77232 13.9883 8.33333 12.8598 8.33333Z" fill="white"/>
</svg>
