<svg width="50" height="50" viewBox="0 0 50 50" fill="none" xmlns="http://www.w3.org/2000/svg">
<circle cx="25" cy="25" r="24.5" transform="rotate(-180 25 25)" fill="white" stroke="white"/>
<path d="M19.1918 26.4659L23.5254 30.7996C23.6491 30.9233 23.814 30.9912 23.9898 30.9912C24.1658 30.9912 24.3306 30.9232 24.4543 30.7996L24.8478 30.406C24.9714 30.2825 25.0395 30.1176 25.0395 29.9417C25.0395 29.7659 24.9714 29.5953 24.8478 29.4718L22.3196 26.9381L30.3517 26.9381C30.7139 26.9381 31 26.6546 31 26.2923L31 25.7359C31 25.3737 30.7139 25.0616 30.3517 25.0616L22.2909 25.0616L24.8477 22.5137C24.9713 22.39 25.0394 22.2295 25.0394 22.0536C25.0394 21.8779 24.9713 21.7151 24.8477 21.5915L24.4542 21.1992C24.3305 21.0755 24.1657 21.0081 23.9897 21.0081C23.8139 21.0081 23.649 21.0764 23.5253 21.2001L19.1917 25.5337C19.0677 25.6578 18.9995 25.8234 19 25.9995C18.9996 26.1762 19.0677 26.342 19.1918 26.4659Z" fill="#172652"/>
</svg>
