<svg width="27" height="22" viewBox="0 0 27 22" fill="none" xmlns="http://www.w3.org/2000/svg">
<path d="M13.6836 0C9.5732 0 4.23823 1.00849 4.23823 1.00849L4.2248 1.02351C2.35273 1.3167 0.918457 2.89195 0.918457 4.80769V10.5769V10.5788V16.3462V16.348C0.920284 17.263 1.25513 18.1473 1.86288 18.8422C2.47062 19.5372 3.31145 19.9972 4.23439 20.1397L4.23823 20.1454C4.23823 20.1454 9.5732 21.1557 13.6836 21.1557C17.7939 21.1557 23.1289 20.1454 23.1289 20.1454L23.1308 20.1435C24.0548 20.0013 24.8965 19.5409 25.5048 18.8451C26.113 18.1493 26.4477 17.2639 26.4487 16.348V16.3462V10.5788V10.5769V4.80769C26.4473 3.89243 26.1126 3.00765 25.5049 2.31232C24.8971 1.61698 24.056 1.15668 23.1327 1.01412L23.1289 1.00849C23.1289 1.00849 17.7939 0 13.6836 0ZM10.7378 6.15234L18.5932 10.5769L10.7378 15.0015V6.15234Z" fill="white"/>
</svg>
