<svg width="20" height="20" viewBox="0 0 20 20" fill="none" xmlns="http://www.w3.org/2000/svg">
<g clip-path="url(#clip0_361_8402)">
<path d="M19.8348 2.65173L19.4518 2.57514C18.7422 2.43321 18.0236 2.46445 17.3492 2.65173C17.5365 1.97738 17.5677 1.2587 17.4258 0.549153L17.3492 0.166163L16.9662 0.0895731C15.4767 -0.208351 13.9462 0.255095 12.8722 1.32915L8.34226 5.85907L6.72781 4.24462L7.55632 3.41611L4.65652 0.516268C3.97127 -0.168982 2.85624 -0.169021 2.17099 0.516268C1.86217 0.825089 1.68262 1.22866 1.65907 1.66141C1.22632 1.68496 0.822788 1.86447 0.513967 2.17333C-0.171322 2.85862 -0.171322 3.97361 0.513967 4.65889L3.41377 7.5587L4.24228 6.73019L5.85673 8.34464L0.688785 13.5125C-0.224908 14.4262 -0.224908 15.9129 0.688785 16.8266C1.16465 17.3024 1.81682 17.5493 2.49434 17.5066C2.45352 18.1552 2.67978 18.8176 3.17435 19.3121C4.08801 20.2258 5.5747 20.2258 6.48843 19.3121L11.6564 14.1442L15.0247 17.5125L14.1962 18.3411L15.0247 19.1696L15.8533 18.341L17.5103 19.9981L18.3388 19.1696L16.6817 17.5126L17.5102 16.6841L19.1673 18.3411L19.9958 17.5126L18.3388 15.8556L19.1673 15.027L18.3388 14.1985L17.5103 15.027L14.142 11.6587L18.6718 7.12876C19.7459 6.0547 20.2093 4.52419 19.9114 3.03468L19.8348 2.65173ZM3.41377 5.90164L1.34244 3.83031C1.11403 3.6019 1.11403 3.2302 1.34244 3.0018C1.57135 2.77285 1.94196 2.77285 2.17095 3.0018L4.24224 5.07309L3.41377 5.90164ZM2.9995 2.17329C2.77059 1.94438 2.77051 1.57377 2.9995 1.34478C3.22794 1.11637 3.5996 1.11633 3.82801 1.34478L5.8993 3.41607L5.07079 4.24458L2.9995 2.17329ZM5.07079 5.90164L5.8993 5.07313L7.51375 6.68758L6.68524 7.51609L5.07079 5.90164ZM1.51729 15.9981C1.06045 15.5412 1.06045 14.7979 1.51729 14.341L13.7007 2.15766C14.3959 1.46246 15.3546 1.10751 16.3326 1.18277C16.4075 2.15462 16.0573 3.11518 15.3577 3.81472L3.17435 15.9981C2.71751 16.4549 1.97418 16.4549 1.51729 15.9981ZM16.6818 15.8556L15.8533 16.6841L12.4849 13.3157L13.3134 12.4871L16.6818 15.8556ZM17.8433 6.30025L5.65992 18.4836C5.20308 18.9404 4.45975 18.9404 4.00286 18.4836C3.54602 18.0268 3.54602 17.2835 4.00286 16.8266L16.1863 4.64323C16.8858 3.94369 17.8466 3.59358 18.8182 3.66834C18.893 4.64015 18.5429 5.60071 17.8433 6.30025Z" fill="white"/>
</g>
<defs>
<clipPath id="clip0_361_8402">
<rect width="20" height="20" fill="white"/>
</clipPath>
</defs>
</svg>
