<svg width="72" height="72" viewBox="0 0 72 72" fill="none" xmlns="http://www.w3.org/2000/svg">
<circle cx="36" cy="36" r="35.5" fill="url(#paint0_linear_939_4928)" stroke="url(#paint1_linear_939_4928)"/>
<path d="M47.6004 34.5293L38.572 25.5007C38.3143 25.243 37.9708 25.1016 37.6045 25.1016C37.2379 25.1016 36.8946 25.2432 36.6369 25.5007L35.8172 26.3207C35.5596 26.578 35.4178 26.9217 35.4178 27.2881C35.4178 27.6544 35.5596 28.0097 35.8172 28.267L41.0842 33.5456L24.3506 33.5456C23.5961 33.5456 23 34.1362 23 34.8909L23 36.0501C23 36.8047 23.5961 37.4549 24.3506 37.4549L41.1439 37.4549L35.8174 42.763C35.5598 43.0207 35.418 43.3551 35.418 43.7215C35.418 44.0876 35.5598 44.4268 35.8174 44.6843L36.6371 45.5016C36.8948 45.7593 37.2381 45.8998 37.6047 45.8998C37.971 45.8998 38.3145 45.7575 38.5722 45.4998L47.6006 36.4714C47.8589 36.2129 48.001 35.8677 48 35.5009C48.0008 35.1328 47.8589 34.7875 47.6004 34.5293Z" fill="white"/>
<defs>
<linearGradient id="paint0_linear_939_4928" x1="72" y1="36" x2="3.14722e-06" y2="36" gradientUnits="userSpaceOnUse">
<stop stop-color="#954396"/>
<stop offset="1" stop-color="#DB2430"/>
</linearGradient>
<linearGradient id="paint1_linear_939_4928" x1="70.56" y1="36" x2="-0.719998" y2="36.72" gradientUnits="userSpaceOnUse">
<stop stop-color="#954396"/>
<stop offset="1" stop-color="#DB2430"/>
</linearGradient>
</defs>
</svg>
