<svg width="30" height="12" viewBox="0 0 30 12" fill="none" xmlns="http://www.w3.org/2000/svg">
<path d="M29.854 3.62913C29.7337 3.49237 29.5563 3.41931 29.3748 3.43155L23.7778 3.80743L17.3609 0.188045C16.9869 -0.0228924 16.6568 -0.0973654 16.1664 0.182419C15.1213 0.779137 12.56 3.08486 11.6683 4.62071L6.7279 4.95253L6.68864 4.36782C6.62694 3.44814 5.85667 2.72773 4.93505 2.72773C4.89591 2.72773 4.85618 2.72902 4.8171 2.73165C4.812 2.732 4.80696 2.73241 4.80187 2.73288C3.84222 2.80536 3.11624 3.64126 3.18081 4.60343L3.22013 5.18802L0.54668 5.36761C0.355489 5.38044 0.182638 5.48596 0.0838492 5.6502C-0.0149396 5.81438 -0.0271857 6.01653 0.0510954 6.19143L1.13941 8.62494C1.13965 8.62547 1.13988 8.626 1.14012 8.62652L2.23488 11.0745C2.32652 11.2793 2.52703 11.4138 2.75132 11.4209L21.0931 11.9978C21.0993 11.9979 21.1054 11.9981 21.1115 11.9981C23.6082 11.9981 25.8056 11.0259 27.4661 9.18656C29.2276 7.2351 29.8172 4.99993 29.9889 4.12958C30.0242 3.95087 29.9743 3.76589 29.854 3.62913ZM16.7475 1.20019C16.7513 1.19791 16.755 1.19585 16.7585 1.19392C16.7664 1.19826 16.7754 1.20318 16.7853 1.2088L21.6463 3.95058L13.1577 4.52069C14.1595 3.25478 15.9833 1.63636 16.7475 1.20019ZM4.8955 3.90107C4.89849 3.90089 4.90147 3.90066 4.9044 3.90042C5.22433 3.8836 5.49813 4.12958 5.5194 4.44634L5.55866 5.03104L4.38943 5.10956L4.35011 4.52497C4.32849 4.20259 4.57312 3.92269 4.8955 3.90107ZM28.1466 6.01958L25.5025 6.19706C25.1797 6.21874 24.9355 6.49805 24.9572 6.8209C24.9779 7.13045 25.2355 7.36764 25.5412 7.36764C25.5544 7.36764 25.5677 7.36717 25.581 7.36629L27.4856 7.23844C26.2764 9.1333 24.2458 10.8228 21.1205 10.8262L3.1548 10.2612L2.578 8.97152L4.67343 8.95236C4.9971 8.94943 5.25696 8.68471 5.25397 8.3611C5.25104 8.0393 4.98931 7.78049 4.66821 7.78049C4.66646 7.78049 4.66458 7.78049 4.66276 7.78055L2.05605 7.80434L1.46402 6.48053L28.6549 4.6544C28.5286 5.08847 28.3604 5.55077 28.1466 6.01958Z" fill="url(#paint0_linear_951_4985)"/>
<path d="M23.8479 7.48154C23.8617 7.48154 23.8756 7.48107 23.8895 7.48007L23.9034 7.47908C24.2262 7.4564 24.4695 7.17632 24.4468 6.85353C24.4241 6.53068 24.1436 6.28723 23.8213 6.31008L23.8074 6.31108C23.4846 6.33375 23.2413 6.61383 23.264 6.93662C23.2857 7.24546 23.543 7.48154 23.8479 7.48154Z" fill="white"/>
<path d="M6.35146 8.93658C6.3531 8.93658 6.3548 8.93658 6.35644 8.93658L6.37021 8.93646C6.69383 8.93383 6.95398 8.66933 6.95129 8.34572C6.94859 8.02375 6.68685 7.76465 6.36553 7.76465C6.36383 7.76465 6.36219 7.76465 6.36049 7.76465L6.34672 7.76476C6.02316 7.7674 5.76301 8.03189 5.76564 8.35551C5.76834 8.67748 6.03014 8.93658 6.35146 8.93658Z" fill="white"/>
<defs>
<linearGradient id="paint0_linear_951_4985" x1="2.77464e-07" y1="6" x2="30" y2="6" gradientUnits="userSpaceOnUse">
<stop stop-color="#954396"/>
<stop offset="1" stop-color="#DB2430"/>
</linearGradient>
</defs>
</svg>
