<svg width="30" height="30" viewBox="0 0 30 30" fill="none" xmlns="http://www.w3.org/2000/svg">
<g clip-path="url(#clip0_361_8423)">
<path d="M29.854 12.6301C29.7337 12.4934 29.5563 12.4203 29.3748 12.4325L23.7778 12.8084L17.3609 9.18902C16.9869 8.97808 16.6568 8.90361 16.1664 9.1834C15.1213 9.78011 12.56 12.0858 11.6683 13.6217L6.7279 13.9535L6.68864 13.3688C6.62694 12.4491 5.85667 11.7287 4.93505 11.7287C4.89591 11.7287 4.85618 11.73 4.8171 11.7326C4.812 11.733 4.80696 11.7334 4.80187 11.7339C3.84222 11.8063 3.11624 12.6422 3.18081 13.6044L3.22013 14.189L0.54668 14.3686C0.355489 14.3814 0.182638 14.4869 0.0838492 14.6512C-0.0149396 14.8154 -0.0271857 15.0175 0.0510954 15.1924L1.13941 17.6259C1.13965 17.6264 1.13988 17.627 1.14012 17.6275L2.23488 20.0754C2.32652 20.2803 2.52703 20.4148 2.75132 20.4219L21.0931 20.9987C21.0993 20.9989 21.1054 20.999 21.1115 20.999C23.6082 20.999 25.8056 20.0269 27.4661 18.1875C29.2276 16.2361 29.8172 14.0009 29.9889 13.1306C30.0242 12.9518 29.9743 12.7669 29.854 12.6301ZM16.7475 10.2012C16.7513 10.1989 16.755 10.1968 16.7585 10.1949C16.7664 10.1992 16.7754 10.2042 16.7853 10.2098L21.6463 12.9516L13.1577 13.5217C14.1595 12.2558 15.9833 10.6373 16.7475 10.2012ZM4.8955 12.902C4.89849 12.9019 4.90147 12.9016 4.9044 12.9014C5.22433 12.8846 5.49813 13.1306 5.5194 13.4473L5.55866 14.032L4.38943 14.1105L4.35011 13.5259C4.32849 13.2036 4.57312 12.9237 4.8955 12.902ZM28.1466 15.0206L25.5025 15.198C25.1797 15.2197 24.9355 15.499 24.9572 15.8219C24.9779 16.1314 25.2355 16.3686 25.5412 16.3686C25.5544 16.3686 25.5677 16.3681 25.581 16.3673L27.4856 16.2394C26.2764 18.1343 24.2458 19.8238 21.1205 19.8272L3.1548 19.2621L2.578 17.9725L4.67343 17.9533C4.9971 17.9504 5.25696 17.6857 5.25397 17.3621C5.25104 17.0403 4.98931 16.7815 4.66821 16.7815C4.66646 16.7815 4.66458 16.7815 4.66276 16.7815L2.05605 16.8053L1.46402 15.4815L28.6549 13.6554C28.5286 14.0894 28.3604 14.5517 28.1466 15.0206Z" fill="white"/>
<path d="M23.8479 16.4825C23.8617 16.4825 23.8756 16.482 23.8895 16.481L23.9034 16.4801C24.2262 16.4574 24.4695 16.1773 24.4468 15.8545C24.4241 15.5317 24.1436 15.2882 23.8213 15.3111L23.8074 15.3121C23.4846 15.3347 23.2413 15.6148 23.264 15.9376C23.2857 16.2464 23.543 16.4825 23.8479 16.4825Z" fill="white"/>
<path d="M6.35146 17.9376C6.3531 17.9376 6.3548 17.9376 6.35644 17.9376L6.37021 17.9374C6.69383 17.9348 6.95398 17.6703 6.95129 17.3467C6.94859 17.0247 6.68685 16.7656 6.36553 16.7656C6.36383 16.7656 6.36219 16.7656 6.36049 16.7656L6.34672 16.7657C6.02316 16.7684 5.76301 17.0329 5.76564 17.3565C5.76834 17.6785 6.03014 17.9376 6.35146 17.9376Z" fill="white"/>
</g>
<defs>
<clipPath id="clip0_361_8423">
<rect width="30" height="30" fill="white"/>
</clipPath>
</defs>
</svg>
