<svg width="25" height="15" viewBox="0 0 25 15" fill="none" xmlns="http://www.w3.org/2000/svg">
<path d="M23.6803 6.01608L19.1149 4.02013L16.3828 0.657776C16.2185 0.454346 16.0106 0.290356 15.7745 0.177876C15.5384 0.0653952 15.2801 0.007286 15.0186 0.00782448H4.09082C3.69156 0.00648788 3.29991 0.117046 2.96028 0.326961C2.62065 0.536877 2.34663 0.837752 2.16929 1.19547L0.421973 4.68966C0.273419 4.988 0.195846 5.31664 0.195312 5.64991V10.3594C0.195829 10.8254 0.381193 11.2722 0.710735 11.6018C1.04028 11.9313 1.48708 12.1167 1.95312 12.1172H2.598C2.7331 12.7789 3.09261 13.3736 3.61573 13.8007C4.13884 14.2278 4.79343 14.461 5.46875 14.461C6.14407 14.461 6.79866 14.2278 7.32177 13.8007C7.84489 13.3736 8.2044 12.7789 8.3395 12.1172H17.4418C17.5768 12.7795 17.9367 13.3747 18.4604 13.802C18.9841 14.2293 19.6395 14.4624 20.3154 14.4617C20.9914 14.461 21.6462 14.2266 22.1691 13.7982C22.692 13.3699 23.0506 12.7739 23.1843 12.1113C23.6251 12.0763 24.0366 11.8766 24.3368 11.552C24.6371 11.2274 24.8041 10.8016 24.8047 10.3594V7.65577C24.8036 7.30117 24.6957 6.95512 24.4952 6.66267C24.2946 6.37022 24.0107 6.14491 23.6803 6.01608V6.01608ZM15.473 1.3964L17.5188 3.91407H13.0859V1.1797H15.0186C15.1057 1.17952 15.1918 1.1989 15.2704 1.2364C15.3491 1.27391 15.4183 1.32858 15.473 1.3964V1.3964ZM9.57031 1.1797V3.91407H4.59375L5.90767 1.1797H9.57031ZM3.21743 1.71959C3.29803 1.55699 3.42258 1.42022 3.57695 1.32479C3.73132 1.22937 3.90934 1.1791 4.09082 1.1797H4.60752L3.2936 3.91407H2.12002L3.21743 1.71959ZM5.46875 13.2891C5.12109 13.2891 4.78123 13.186 4.49216 12.9928C4.20309 12.7997 3.97779 12.5251 3.84474 12.2039C3.7117 11.8827 3.67689 11.5293 3.74471 11.1883C3.81254 10.8473 3.97995 10.5341 4.22579 10.2883C4.47162 10.0425 4.78484 9.87505 5.12582 9.80723C5.4668 9.7394 5.82024 9.77421 6.14144 9.90725C6.46263 10.0403 6.73717 10.2656 6.93032 10.5547C7.12347 10.8437 7.22656 11.1836 7.22656 11.5313C7.22605 11.9973 7.04068 12.4441 6.71114 12.7737C6.3816 13.1032 5.93479 13.2886 5.46875 13.2891V13.2891ZM20.3125 13.2891C19.9648 13.2891 19.625 13.186 19.3359 12.9928C19.0468 12.7997 18.8215 12.5251 18.6885 12.2039C18.5554 11.8827 18.5206 11.5293 18.5885 11.1883C18.6563 10.8473 18.8237 10.5341 19.0695 10.2883C19.3154 10.0425 19.6286 9.87505 19.9696 9.80723C20.3105 9.7394 20.664 9.77421 20.9852 9.90725C21.3064 10.0403 21.5809 10.2656 21.7741 10.5547C21.9672 10.8437 22.0703 11.1836 22.0703 11.5313C22.0698 11.9973 21.8844 12.4441 21.5549 12.7737C21.2253 13.1032 20.7785 13.2886 20.3125 13.2891V13.2891ZM23.6328 10.3594C23.6326 10.4916 23.5877 10.6198 23.5055 10.7233C23.4233 10.8268 23.3085 10.8995 23.1798 10.9296C23.0415 10.2699 22.68 9.67807 22.1562 9.25389C21.6324 8.82971 20.9784 8.5991 20.3044 8.60095C19.6304 8.60281 18.9776 8.837 18.4562 9.26406C17.9347 9.69111 17.5765 10.2849 17.4418 10.9453H8.3395C8.2044 10.2837 7.84489 9.68897 7.32177 9.26187C6.79866 8.83477 6.14407 8.60149 5.46875 8.60149C4.79343 8.60149 4.13884 8.83477 3.61573 9.26187C3.09261 9.68897 2.7331 10.2837 2.598 10.9453H1.95312C1.79778 10.9452 1.64884 10.8834 1.53899 10.7735C1.42914 10.6637 1.36736 10.5147 1.36719 10.3594V5.64991C1.36748 5.49835 1.40279 5.34891 1.47036 5.21324L1.53384 5.08595H10.1562C10.3117 5.08595 10.4607 5.02422 10.5706 4.91433C10.6805 4.80445 10.7422 4.65541 10.7422 4.50001V1.1797H11.9141V4.50001C11.9141 4.65541 11.9758 4.80445 12.0857 4.91433C12.1956 5.02422 12.3446 5.08595 12.5 5.08595H18.6275L23.2238 7.09547C23.2333 7.09967 23.243 7.10359 23.2528 7.10724C23.3642 7.14945 23.4602 7.22449 23.5281 7.32244C23.5959 7.42038 23.6324 7.53662 23.6328 7.65577V10.3594Z" fill="url(#paint0_linear_951_4977)"/>
<path d="M5.46875 12.1172C5.79235 12.1172 6.05469 11.8549 6.05469 11.5312C6.05469 11.2076 5.79235 10.9453 5.46875 10.9453C5.14515 10.9453 4.88281 11.2076 4.88281 11.5312C4.88281 11.8549 5.14515 12.1172 5.46875 12.1172Z" fill="white"/>
<path d="M20.3125 12.1172C20.6361 12.1172 20.8984 11.8549 20.8984 11.5312C20.8984 11.2076 20.6361 10.9453 20.3125 10.9453C19.9889 10.9453 19.7266 11.2076 19.7266 11.5312C19.7266 11.8549 19.9889 12.1172 20.3125 12.1172Z" fill="white"/>
<path d="M13.2812 6.25781H12.5488C12.3934 6.25781 12.2444 6.31954 12.1345 6.42943C12.0246 6.53931 11.9629 6.68835 11.9629 6.84375C11.9629 6.99915 12.0246 7.14819 12.1345 7.25807C12.2444 7.36796 12.3934 7.42969 12.5488 7.42969H13.2812C13.4367 7.42969 13.5857 7.36796 13.6956 7.25807C13.8055 7.14819 13.8672 6.99915 13.8672 6.84375C13.8672 6.68835 13.8055 6.53931 13.6956 6.42943C13.5857 6.31954 13.4367 6.25781 13.2812 6.25781Z" fill="white"/>
<path d="M6.25 6.25781H5.07812C4.92272 6.25781 4.77369 6.31954 4.6638 6.42943C4.55392 6.53931 4.49219 6.68835 4.49219 6.84375C4.49219 6.99915 4.55392 7.14819 4.6638 7.25807C4.77369 7.36796 4.92272 7.42969 5.07812 7.42969H6.25C6.4054 7.42969 6.55444 7.36796 6.66432 7.25807C6.7742 7.14819 6.83594 6.99915 6.83594 6.84375C6.83594 6.68835 6.7742 6.53931 6.66432 6.42943C6.55444 6.31954 6.4054 6.25781 6.25 6.25781Z" fill="white"/>
<defs>
<linearGradient id="paint0_linear_951_4977" x1="-1.29241e-07" y1="7" x2="25" y2="7" gradientUnits="userSpaceOnUse">
<stop stop-color="#954396"/>
<stop offset="1" stop-color="#DB2430"/>
</linearGradient>
</defs>
</svg>
