<svg width="25" height="25" viewBox="0 0 25 25" fill="none" xmlns="http://www.w3.org/2000/svg">
<path d="M23.6803 14.0161L19.1149 12.0201L16.3828 8.65778C16.2185 8.45435 16.0106 8.29036 15.7745 8.17788C15.5384 8.0654 15.2801 8.00729 15.0186 8.00782H4.09082C3.69156 8.00649 3.29991 8.11705 2.96028 8.32696C2.62065 8.53688 2.34663 8.83775 2.16929 9.19547L0.421973 12.6897C0.273419 12.988 0.195846 13.3166 0.195312 13.6499V18.3594C0.195829 18.8254 0.381193 19.2722 0.710735 19.6018C1.04028 19.9313 1.48708 20.1167 1.95312 20.1172H2.598C2.7331 20.7789 3.09261 21.3736 3.61573 21.8007C4.13884 22.2277 4.79343 22.461 5.46875 22.461C6.14407 22.461 6.79866 22.2277 7.32177 21.8007C7.84489 21.3736 8.2044 20.7789 8.3395 20.1172H17.4418C17.5768 20.7795 17.9367 21.3747 18.4604 21.802C18.9841 22.2293 19.6395 22.4624 20.3154 22.4617C20.9914 22.461 21.6462 22.2266 22.1691 21.7982C22.692 21.3699 23.0506 20.7739 23.1843 20.1113C23.6251 20.0763 24.0366 19.8766 24.3368 19.552C24.6371 19.2274 24.8041 18.8016 24.8047 18.3594V15.6558C24.8036 15.3012 24.6957 14.9551 24.4952 14.6627C24.2946 14.3702 24.0107 14.1449 23.6803 14.0161ZM15.473 9.3964L17.5188 11.9141H13.0859V9.1797H15.0186C15.1057 9.17952 15.1918 9.1989 15.2704 9.2364C15.3491 9.27391 15.4183 9.32858 15.473 9.3964ZM9.57031 9.1797V11.9141H4.59375L5.90767 9.1797H9.57031ZM3.21743 9.71959C3.29803 9.55699 3.42258 9.42022 3.57695 9.32479C3.73132 9.22937 3.90934 9.1791 4.09082 9.1797H4.60752L3.2936 11.9141H2.12002L3.21743 9.71959ZM5.46875 21.2891C5.12109 21.2891 4.78123 21.186 4.49216 20.9928C4.20309 20.7997 3.97779 20.5251 3.84474 20.2039C3.7117 19.8827 3.67689 19.5293 3.74471 19.1883C3.81254 18.8473 3.97995 18.5341 4.22579 18.2883C4.47162 18.0425 4.78484 17.8751 5.12582 17.8072C5.4668 17.7394 5.82024 17.7742 6.14144 17.9073C6.46263 18.0403 6.73717 18.2656 6.93032 18.5547C7.12347 18.8437 7.22656 19.1836 7.22656 19.5313C7.22605 19.9973 7.04068 20.4441 6.71114 20.7737C6.3816 21.1032 5.93479 21.2886 5.46875 21.2891ZM20.3125 21.2891C19.9648 21.2891 19.625 21.186 19.3359 20.9928C19.0468 20.7997 18.8215 20.5251 18.6885 20.2039C18.5554 19.8827 18.5206 19.5293 18.5885 19.1883C18.6563 18.8473 18.8237 18.5341 19.0695 18.2883C19.3154 18.0425 19.6286 17.8751 19.9696 17.8072C20.3106 17.7394 20.664 17.7742 20.9852 17.9073C21.3064 18.0403 21.5809 18.2656 21.7741 18.5547C21.9672 18.8437 22.0703 19.1836 22.0703 19.5313C22.0698 19.9973 21.8844 20.4441 21.5549 20.7737C21.2253 21.1032 20.7785 21.2886 20.3125 21.2891ZM23.6328 18.3594C23.6326 18.4916 23.5877 18.6198 23.5055 18.7233C23.4233 18.8268 23.3085 18.8995 23.1798 18.9296C23.0415 18.2699 22.68 17.6781 22.1562 17.2539C21.6324 16.8297 20.9784 16.5991 20.3044 16.601C19.6304 16.6028 18.9776 16.837 18.4562 17.2641C17.9347 17.6911 17.5765 18.2849 17.4418 18.9453H8.3395C8.2044 18.2837 7.84489 17.689 7.32177 17.2619C6.79866 16.8348 6.14407 16.6015 5.46875 16.6015C4.79343 16.6015 4.13884 16.8348 3.61573 17.2619C3.09261 17.689 2.7331 18.2837 2.598 18.9453H1.95312C1.79778 18.9452 1.64884 18.8834 1.53899 18.7735C1.42914 18.6637 1.36736 18.5147 1.36719 18.3594V13.6499C1.36748 13.4984 1.40279 13.3489 1.47036 13.2132L1.53384 13.0859H10.1562C10.3117 13.0859 10.4607 13.0242 10.5706 12.9143C10.6805 12.8044 10.7422 12.6554 10.7422 12.5V9.1797H11.9141V12.5C11.9141 12.6554 11.9758 12.8044 12.0857 12.9143C12.1956 13.0242 12.3446 13.0859 12.5 13.0859H18.6275L23.2238 15.0955C23.2333 15.0997 23.243 15.1036 23.2528 15.1072C23.3642 15.1495 23.4602 15.2245 23.5281 15.3224C23.5959 15.4204 23.6324 15.5366 23.6328 15.6558V18.3594Z" fill="white"/>
<path d="M5.46875 20.1172C5.79235 20.1172 6.05469 19.8549 6.05469 19.5312C6.05469 19.2076 5.79235 18.9453 5.46875 18.9453C5.14515 18.9453 4.88281 19.2076 4.88281 19.5312C4.88281 19.8549 5.14515 20.1172 5.46875 20.1172Z" fill="white"/>
<path d="M20.3125 20.1172C20.6361 20.1172 20.8984 19.8549 20.8984 19.5312C20.8984 19.2076 20.6361 18.9453 20.3125 18.9453C19.9889 18.9453 19.7266 19.2076 19.7266 19.5312C19.7266 19.8549 19.9889 20.1172 20.3125 20.1172Z" fill="white"/>
<path d="M13.2812 14.2578H12.5488C12.3934 14.2578 12.2444 14.3195 12.1345 14.4294C12.0246 14.5393 11.9629 14.6883 11.9629 14.8438C11.9629 14.9992 12.0246 15.1482 12.1345 15.2581C12.2444 15.368 12.3934 15.4297 12.5488 15.4297H13.2812C13.4367 15.4297 13.5857 15.368 13.6956 15.2581C13.8055 15.1482 13.8672 14.9992 13.8672 14.8438C13.8672 14.6883 13.8055 14.5393 13.6956 14.4294C13.5857 14.3195 13.4367 14.2578 13.2812 14.2578Z" fill="white"/>
<path d="M6.25 14.2578H5.07812C4.92272 14.2578 4.77369 14.3195 4.6638 14.4294C4.55392 14.5393 4.49219 14.6883 4.49219 14.8438C4.49219 14.9992 4.55392 15.1482 4.6638 15.2581C4.77369 15.368 4.92272 15.4297 5.07812 15.4297H6.25C6.4054 15.4297 6.55444 15.368 6.66432 15.2581C6.7742 15.1482 6.83594 14.9992 6.83594 14.8438C6.83594 14.6883 6.7742 14.5393 6.66432 14.4294C6.55444 14.3195 6.4054 14.2578 6.25 14.2578Z" fill="white"/>
</svg>
