<svg width="25" height="25" viewBox="0 0 25 25" fill="none" xmlns="http://www.w3.org/2000/svg">
<path d="M12.686 0.25C10.2757 0.250198 7.91955 0.965121 5.91554 2.30437C3.91153 3.64361 2.34965 5.54703 1.4274 7.77393C0.505147 10.0008 0.263946 12.4512 0.734297 14.8152C1.20465 17.1792 2.36543 19.3506 4.06985 21.0549C5.77427 22.7591 7.94579 23.9197 10.3098 24.3899C12.6738 24.8601 15.1242 24.6187 17.351 23.6962C19.5778 22.7738 21.4811 21.2118 22.8202 19.2076C24.1593 17.2035 24.874 14.8473 24.874 12.437C24.8708 9.20552 23.5857 6.1073 21.3007 3.82229C19.0157 1.53729 15.9175 0.253177 12.686 0.25ZM17.374 13.374H7.99901C7.75566 13.3661 7.52495 13.2638 7.35562 13.0889C7.1863 12.9139 7.09163 12.68 7.09163 12.4365C7.09163 12.193 7.1863 11.9591 7.35562 11.7842C7.52495 11.6092 7.75566 11.5069 7.99901 11.499H17.373C17.6218 11.499 17.8604 11.5978 18.0363 11.7737C18.2122 11.9496 18.311 12.1882 18.311 12.437C18.311 12.6858 18.2122 12.9244 18.0363 13.1003C17.8604 13.2762 17.6218 13.375 17.373 13.375L17.374 13.374Z" fill="#0076ae"/>
</svg>
