<?xml version="1.0" encoding="UTF-8"?>
<svg xmlns="http://www.w3.org/2000/svg" width="30" height="30" viewBox="0 0 30 30" fill="none">
  <g id="dashicons:tickets-alt">
    <path id="Vector" d="M28.0139 12.8911C27.2842 12.7779 26.5614 12.8948 25.8654 13.2289C25.4917 13.4083 25.1604 13.6328 24.875 13.9009L25.3023 12.7282C25.5578 12.062 25.5089 11.3428 25.2196 10.7228C24.9257 10.093 24.4016 9.61366 23.7607 9.36557L23.7534 9.36272L23.7459 9.36002L12.4659 5.26501L12.4636 5.26419C11.1136 4.77903 9.59373 5.50662 9.10681 6.81914L9.10532 6.82324L8.59378 8.22717C8.54743 7.8172 8.4283 7.41223 8.23877 7.01595C8.03235 6.56921 7.7376 6.16887 7.37226 5.83909L6.86972 6.39583L7.37226 5.83909C7.1951 5.67918 7.00314 5.53748 6.79931 5.41571L7.85018 2.45886L29.0408 10.0239L28.0139 12.8911ZM11.709 7.38358L22.9607 11.4738C22.961 11.4739 22.9614 11.474 22.9617 11.4741C23.0524 11.5078 23.1317 11.5746 23.1861 11.675C23.2234 11.7677 23.2246 11.8603 23.1912 11.9507L23.1903 11.9532L21.1353 17.5932L21.1328 17.6002L21.1304 17.6072C21.0746 17.7703 20.8427 17.8888 20.6593 17.8212L20.6571 17.8204L9.39206 13.7104L9.39038 13.7098C9.29692 13.676 9.22072 13.6064 9.17853 13.5164C9.13645 13.4266 9.13163 13.3239 9.16511 13.2306C9.1652 13.2303 9.16529 13.2301 9.16538 13.2298L11.2197 7.59176L11.2198 7.5918L11.224 7.57949C11.2655 7.4593 11.4068 7.35 11.565 7.35C11.5817 7.35 11.6117 7.35164 11.709 7.38358ZM7.46699 11.3197L7.05143 12.4602C7.05122 12.4608 7.05102 12.4613 7.05081 12.4619C6.54804 13.8264 7.25861 15.3386 8.60965 15.8252C8.61022 15.8254 8.61079 15.8256 8.61135 15.8258L19.8882 19.9347L19.8882 19.9347L19.8927 19.9363C20.1644 20.0333 20.4607 20.1 20.79 20.1C21.8775 20.1 22.8879 19.4143 23.2522 18.3548L23.7197 17.0718C23.7678 17.4618 23.8803 17.8467 24.0536 18.2234L24.0535 18.2235L24.0589 18.2345C24.3952 18.9353 24.8884 19.474 25.5283 19.8469L24.4916 22.7416L3.31209 15.1755L4.31825 12.34C5.0436 12.451 5.76206 12.3347 6.45404 12.0038C6.84191 11.8247 7.1796 11.5951 7.46699 11.3197ZM0.75 18.8819V16.852L0.90384 16.9067L3.8855 17.9664C3.56741 18.3908 3.375 18.917 3.375 19.5V20.9183C3.19439 20.5549 2.95005 20.2194 2.64533 19.9147L2.115 20.445L2.64533 19.9147C2.10501 19.3744 1.46802 19.0239 0.75 18.8819ZM20.625 25.5V24.1376C20.8775 24.6697 21.25 25.1234 21.7323 25.483C22.1891 25.8341 22.6976 26.0694 23.25 26.179V29.25H0.75V26.2385C1.46794 26.0976 2.11246 25.7496 2.64538 25.2054C2.9512 24.9059 3.19505 24.5712 3.375 24.2081V25.5C3.375 26.9492 4.55079 28.125 6 28.125H18C19.4492 28.125 20.625 26.9492 20.625 25.5ZM6 19.125H7.11503L18.375 23.1484V25.5C18.375 25.7008 18.2008 25.875 18 25.875H6C5.79921 25.875 5.625 25.7008 5.625 25.5V19.5C5.625 19.2992 5.79921 19.125 6 19.125Z" fill="#FCB11A" stroke="#FCB11A" stroke-width="1.5"></path>
  </g>
</svg>
