<svg width="25" height="26" viewBox="0 0 25 26" fill="none" xmlns="http://www.w3.org/2000/svg">
<path d="M12.686 0.751C10.2757 0.751198 7.91955 1.46612 5.91554 2.80537C3.91153 4.14461 2.34965 6.04803 1.4274 8.27493C0.505147 10.5018 0.263946 12.9522 0.734297 15.3162C1.20465 17.6802 2.36543 19.8516 4.06985 21.5559C5.77427 23.2601 7.94579 24.4207 10.3098 24.8909C12.6738 25.3611 15.1242 25.1197 17.351 24.1972C19.5778 23.2748 21.4811 21.7127 22.8202 19.7086C24.1593 17.7045 24.874 15.3483 24.874 12.938C24.87 9.70676 23.5847 6.609 21.2998 4.32417C19.015 2.03933 15.9172 0.754969 12.686 0.751ZM17.374 13.875H13.624V17.625C13.624 17.8738 13.5252 18.1124 13.3493 18.2883C13.1734 18.4642 12.9348 18.563 12.686 18.563C12.4372 18.563 12.1986 18.4642 12.0227 18.2883C11.8468 18.1124 11.748 17.8738 11.748 17.625V13.875H7.99801C7.75466 13.8671 7.52395 13.7648 7.35462 13.5898C7.1853 13.4149 7.09063 13.181 7.09063 12.9375C7.09063 12.694 7.1853 12.4601 7.35462 12.2852C7.52395 12.1102 7.75466 12.0079 7.99801 12H11.748V8.25C11.748 8.00123 11.8468 7.76264 12.0227 7.58673C12.1986 7.41082 12.4372 7.312 12.686 7.312C12.9348 7.312 13.1734 7.41082 13.3493 7.58673C13.5252 7.76264 13.624 8.00123 13.624 8.25V12H17.374C17.6228 12 17.8614 12.0988 18.0373 12.2747C18.2132 12.4506 18.312 12.6892 18.312 12.938C18.312 13.1868 18.2132 13.4254 18.0373 13.6013C17.8614 13.7772 17.6228 13.875 17.374 13.875Z" fill="#0076ae"/>
</svg>
