<svg width="25" height="25" viewBox="0 0 25 25" fill="none" xmlns="http://www.w3.org/2000/svg">
<path d="M12.186 0.000999928C9.77569 0.00119771 7.41955 0.716121 5.41554 2.05537C3.41153 3.39461 1.84965 5.29803 0.927399 7.52493C0.0051468 9.75183 -0.236054 12.2022 0.234297 14.5662C0.704648 16.9302 1.86543 19.1016 3.56985 20.8059C5.27427 22.5101 7.44579 23.6707 9.80981 24.1409C12.1738 24.6111 14.6242 24.3697 16.851 23.4472C19.0778 22.5248 20.9811 20.9627 22.3202 18.9586C23.6593 16.9545 24.374 14.5983 24.374 12.188C24.37 8.95676 23.0847 5.859 20.7998 3.57417C18.515 1.28933 15.4172 0.00496935 12.186 0.000999928ZM16.874 13.125H13.124V16.875C13.124 17.1238 13.0252 17.3624 12.8493 17.5383C12.6734 17.7142 12.4348 17.813 12.186 17.813C11.9372 17.813 11.6986 17.7142 11.5227 17.5383C11.3468 17.3624 11.248 17.1238 11.248 16.875V13.125H7.49801C7.25466 13.1171 7.02395 13.0148 6.85462 12.8398C6.6853 12.6649 6.59063 12.431 6.59063 12.1875C6.59063 11.944 6.6853 11.7101 6.85462 11.5352C7.02395 11.3602 7.25466 11.2579 7.49801 11.25H11.248V7.5C11.248 7.25123 11.3468 7.01264 11.5227 6.83673C11.6986 6.66082 11.9372 6.562 12.186 6.562C12.4348 6.562 12.6734 6.66082 12.8493 6.83673C13.0252 7.01264 13.124 7.25123 13.124 7.5V11.25H16.874C17.1228 11.25 17.3614 11.3488 17.5373 11.5247C17.7132 11.7006 17.812 11.9392 17.812 12.188C17.812 12.4368 17.7132 12.6754 17.5373 12.8513C17.3614 13.0272 17.1228 13.125 16.874 13.125Z" fill="white"/>
</svg>
