<svg width="20" height="16" viewBox="0 0 20 16" fill="none" xmlns="http://www.w3.org/2000/svg">
<path d="M17.8451 6.45797H17.4896V2.2174C17.4896 0.994745 16.5229 0 15.3346 0H4.66539C3.47715 0 2.51047 0.994745 2.51047 2.2174V6.45797H2.15492C0.96668 6.45797 0 7.45267 0 8.67541V13.5189V14.8105C0 15.1435 0.262344 15.4135 0.585938 15.4135C0.909531 15.4135 1.17188 15.1435 1.17188 14.8105V14.1218H18.8281V14.8105C18.8281 15.1435 19.0905 15.4135 19.4141 15.4135C19.7377 15.4135 20 15.1435 20 14.8105V13.5189V8.67541C20 7.45267 19.0333 6.45797 17.8451 6.45797ZM3.68234 2.2174C3.68234 1.65965 4.12332 1.20585 4.66539 1.20585H15.3346C15.8768 1.20585 16.3178 1.65965 16.3178 2.2174V6.45797H14.1133C14.2652 6.15442 14.3516 5.81071 14.3516 5.44642V4.80061C14.3516 3.57796 13.3849 2.58321 12.1967 2.58321H7.80344C6.61516 2.58321 5.64844 3.57796 5.64844 4.80061V5.44642C5.64844 5.81071 5.7348 6.15442 5.88672 6.45797H3.68234V2.2174ZM6.82031 5.44642V4.80061C6.82031 4.24286 7.26133 3.78906 7.80344 3.78906H12.1967C12.7387 3.78906 13.1797 4.24286 13.1797 4.80061V5.44642C13.1797 6.00417 12.7387 6.45797 12.1967 6.45797H7.80344C7.26133 6.45797 6.82031 6.00417 6.82031 5.44642ZM2.15492 7.66382H3.09641H7.80344H12.1967H16.9037H17.8451C18.3872 7.66382 18.8282 8.11762 18.8282 8.67541V10.3328H1.17188V8.67541C1.17188 8.11762 1.61285 7.66382 2.15492 7.66382ZM1.17188 11.5386H18.8281V12.916H1.17188V11.5386Z" fill="url(#paint0_linear_951_4975)"/>
<defs>
<linearGradient id="paint0_linear_951_4975" x1="-4.52404e-08" y1="8" x2="20" y2="8" gradientUnits="userSpaceOnUse">
<stop stop-color="#954396"/>
<stop offset="1" stop-color="#DB2430"/>
</linearGradient>
</defs>
</svg>
