<?xml version="1.0" standalone="no"?>
<!DOCTYPE svg PUBLIC "-//W3C//DTD SVG 20010904//EN"
 "http://www.w3.org/TR/2001/REC-SVG-20010904/DTD/svg10.dtd">
<svg version="1.0" xmlns="http://www.w3.org/2000/svg"
 width="3720.000000pt" height="2970.000000pt" viewBox="0 0 3720.000000 2970.000000"
 preserveAspectRatio="xMidYMid meet">

<g transform="translate(0.000000,2970.000000) scale(0.100000,-0.100000)"
fill="#000000" stroke="none">
<path d="M17635 16899 c-471 -14 -764 -35 -935 -68 -25 -5 -101 -18 -170 -30
-360 -60 -863 -163 -1100 -225 -30 -8 -104 -27 -165 -41 -160 -38 -224 -54
-280 -71 -27 -8 -106 -30 -175 -48 -69 -19 -181 -51 -250 -71 -69 -21 -134
-40 -145 -42 -137 -32 -836 -271 -986 -337 -19 -8 -65 -27 -104 -42 -96 -36
-127 -53 -119 -65 3 -6 18 -7 33 -4 37 8 223 8 561 0 319 -7 323 -7 328 64 4
49 43 111 71 111 31 0 91 -77 91 -117 0 -20 -8 -32 -120 -179 -153 -200 -384
-546 -378 -565 2 -5 35 32 73 83 111 147 262 314 396 438 68 63 126 118 129
121 3 3 41 35 85 71 166 135 337 246 585 381 73 40 289 135 365 162 28 9 59
21 70 26 45 20 326 107 366 114 24 4 55 13 69 20 14 7 45 16 70 20 25 3 60 11
78 16 136 43 569 105 1042 150 374 35 907 33 1242 -5 294 -34 472 -88 628
-192 l65 -43 110 37 c99 33 255 108 255 123 0 3 -21 10 -47 16 -27 6 -112 27
-191 47 -165 42 -314 70 -492 92 -69 9 -138 18 -155 20 -41 5 -500 33 -605 36
-46 2 -179 0 -295 -3z"/>
<path d="M25980 16094 c-4335 -506 -8799 -1300 -12115 -2155 -368 -95 -1188
-318 -1265 -344 -55 -18 -91 -24 435 65 928 157 1499 230 1801 230 211 0 259
-27 89 -49 -219 -29 -866 -126 -1145 -172 -824 -134 -1356 -248 -1536 -329
l-70 -31 -113 -305 c-62 -168 -110 -308 -107 -311 5 -5 1703 120 6960 514
1083 82 1963 149 1955 150 -8 1 -183 9 -389 18 -1100 46 -1816 113 -1936 183
-14 8 204 11 811 12 1476 0 2727 27 3525 75 388 24 334 9 533 148 568 397
1043 761 1256 962 83 78 83 74 -3 -40 -156 -208 -412 -489 -663 -727 -941
-893 -2167 -1620 -3546 -2104 -76 -27 -134 -50 -129 -52 5 -1 96 20 203 47
1172 298 2433 913 3475 1694 436 326 728 580 1124 976 357 358 578 606 848
954 184 237 452 612 452 632 0 10 -75 3 -450 -41z"/>
<path d="M8982 10940 c-305 -43 -517 -237 -599 -549 -22 -83 -26 -117 -26
-246 1 -129 4 -164 27 -249 79 -302 272 -511 536 -582 87 -23 253 -24 340 -1
245 64 434 253 518 517 36 113 46 181 45 320 0 168 -24 275 -90 410 -39 79
-62 110 -132 180 -98 98 -186 149 -306 180 -91 23 -227 32 -313 20z m238 -361
c131 -57 210 -217 210 -432 0 -333 -187 -566 -404 -503 -109 32 -193 127 -242
271 -35 105 -44 285 -20 389 49 206 178 316 355 300 29 -2 75 -14 101 -25z"/>
<path d="M10582 10940 c-303 -42 -518 -239 -599 -548 -22 -83 -25 -118 -25
-247 0 -129 3 -164 26 -249 79 -302 272 -511 536 -582 86 -23 253 -23 340 -1
282 73 481 305 551 642 7 33 13 121 12 195 0 168 -24 275 -90 410 -39 79 -62
110 -132 180 -98 98 -186 149 -306 180 -91 23 -227 32 -313 20z m238 -361
c131 -57 210 -217 210 -432 0 -229 -90 -421 -228 -488 -101 -49 -226 -21 -312
70 -147 156 -187 489 -84 695 79 159 253 224 414 155z"/>
<path d="M7485 10930 c-38 -4 -151 -8 -251 -9 -174 -1 -181 -2 -202 -24 -21
-22 -21 -23 -5 -102 14 -69 17 -177 19 -759 3 -597 5 -681 19 -696 14 -15 48
-18 295 -23 361 -7 468 6 607 75 224 110 323 374 221 587 -29 61 -121 157
-186 193 l-52 30 53 38 c98 71 140 154 140 280 1 112 -25 180 -100 260 -59 64
-138 110 -233 135 -68 18 -231 26 -325 15z m137 -290 c77 -22 128 -87 128
-163 0 -96 -82 -157 -221 -165 l-79 -5 0 172 0 171 68 0 c37 0 84 -5 104 -10z
m73 -619 c95 -42 135 -100 135 -193 0 -59 -25 -122 -61 -155 -57 -52 -194 -85
-283 -69 l-36 7 0 221 0 221 98 -5 c71 -3 111 -11 147 -27z"/>
<path d="M21105 10930 c-49 -4 -158 -8 -242 -9 -148 -1 -152 -2 -171 -26 -18
-23 -18 -28 -4 -97 12 -60 16 -194 18 -757 3 -622 5 -686 20 -703 15 -16 35
-18 184 -18 154 0 168 2 185 20 17 19 18 43 16 325 -2 191 1 305 7 305 5 0 54
-80 107 -177 105 -192 198 -337 267 -420 l43 -52 207 0 207 -1 17 31 c18 35
26 22 -83 141 -112 122 -207 256 -321 450 l-51 86 52 26 c176 87 270 227 271
406 1 237 -130 399 -368 455 -78 19 -245 26 -361 15z m250 -326 c22 -11 48
-32 58 -46 25 -33 33 -114 17 -162 -25 -76 -155 -146 -271 -146 l-49 0 0 184
0 185 28 4 c62 11 179 0 217 -19z"/>
<path d="M22590 10930 c-52 -4 -163 -8 -247 -9 -148 -1 -152 -2 -171 -25 -18
-23 -18 -28 -4 -98 13 -60 16 -199 19 -757 2 -622 4 -686 19 -703 15 -16 35
-18 184 -18 154 0 168 2 185 20 17 19 18 43 16 326 -2 226 1 305 9 302 6 -2
54 -82 107 -178 103 -188 195 -334 265 -417 l43 -52 209 2 210 2 12 31 c12 30
12 32 -68 120 -134 148 -217 264 -336 467 l-52 88 27 10 c15 5 58 31 96 56
152 101 222 252 198 427 -16 115 -45 179 -112 250 -123 132 -314 181 -609 156z
m245 -326 c58 -28 85 -74 85 -143 0 -65 -20 -105 -74 -146 -45 -34 -143 -65
-207 -65 l-49 0 0 184 0 185 28 4 c60 11 178 0 217 -19z"/>
<path d="M16151 10915 c-139 -10 -166 -15 -178 -30 -7 -11 -13 -26 -13 -34 0
-8 44 -80 98 -160 126 -187 146 -221 286 -485 l116 -218 0 -247 c0 -135 -5
-275 -10 -311 -8 -59 -7 -67 12 -87 21 -22 27 -23 198 -23 170 0 177 1 197 23
19 20 20 29 13 107 -5 47 -9 190 -9 318 l-1 233 225 435 225 435 -20 29 c-17
24 -26 28 -53 24 -17 -2 -95 -8 -171 -14 -77 -6 -142 -13 -146 -15 -4 -3 -11
-17 -15 -32 -21 -87 -220 -542 -231 -530 -3 3 -40 74 -82 159 -43 84 -113 217
-157 296 -63 112 -84 142 -100 141 -11 -1 -94 -7 -184 -14z"/>
<path d="M23560 10914 c-91 -7 -168 -13 -171 -13 -4 -1 -12 -15 -19 -31 -12
-29 -10 -34 39 -103 109 -155 204 -313 325 -540 l126 -237 -1 -253 c0 -138 -4
-279 -9 -312 -6 -53 -5 -63 13 -82 20 -22 27 -23 197 -23 170 0 177 1 197 23
20 20 20 28 13 102 -5 44 -9 187 -9 319 l-1 238 225 435 225 435 -19 27 -19
27 -173 -13 c-95 -7 -174 -15 -176 -17 -2 -2 -23 -55 -47 -118 -44 -117 -109
-269 -167 -392 l-32 -68 -111 218 c-152 296 -208 394 -226 393 -8 -1 -89 -7
-180 -15z"/>
<path d="M11662 10897 c-22 -23 -22 -24 -5 -98 14 -64 17 -164 19 -758 3 -625
5 -685 20 -702 15 -17 34 -19 184 -19 156 0 168 1 186 21 17 19 18 40 16 347
l-3 327 85 -143 c88 -148 165 -263 299 -444 l79 -108 209 0 208 0 16 31 c19
35 24 25 -76 140 -156 179 -277 343 -417 565 l-70 111 224 342 c123 188 224
346 224 352 0 5 -7 21 -16 34 l-16 25 -187 0 -186 0 -57 -113 c-47 -92 -297
-519 -315 -537 -3 -3 -3 133 -2 302 3 289 3 308 -15 327 -18 20 -29 21 -201
21 -177 0 -182 -1 -203 -23z"/>
<path d="M13992 10897 c-22 -23 -22 -26 -13 -183 13 -200 -5 -917 -30 -1228
-9 -116 -8 -120 13 -143 21 -22 28 -23 166 -23 119 0 149 3 163 16 16 14 17
36 12 262 -6 275 5 753 17 731 19 -34 263 -777 294 -898 19 -73 37 -135 39
-137 3 -3 410 36 413 39 1 1 20 70 44 152 42 148 248 782 274 840 11 27 14 6
20 -175 4 -113 6 -337 5 -498 -1 -268 0 -295 16 -312 17 -18 32 -20 185 -20
160 0 167 1 187 23 21 22 21 25 7 157 -17 168 -34 701 -34 1086 l0 291 -23 21
c-23 22 -28 22 -267 20 l-244 -3 -106 -320 c-58 -176 -139 -428 -179 -560 -40
-132 -76 -244 -78 -249 -3 -4 -34 86 -69 200 -35 115 -115 371 -178 569 l-114
360 -249 3 -249 2 -22 -23z"/>
<path d="M18282 10897 c-22 -23 -22 -24 -5 -98 14 -64 17 -163 20 -758 2 -624
4 -686 19 -702 15 -17 34 -19 184 -19 156 0 168 1 185 20 18 20 19 41 16 341
l-3 321 233 -3 c288 -3 269 -14 269 164 0 97 -3 124 -16 138 -15 17 -34 18
-250 12 l-234 -6 0 153 0 153 243 -6 c300 -9 280 -19 272 139 -3 60 -8 124
-11 142 l-5 32 -448 0 -448 0 -21 -23z"/>
<path d="M19442 10895 c-18 -23 -18 -28 -4 -97 13 -60 16 -193 18 -757 3 -624
5 -686 20 -702 16 -18 41 -19 464 -19 l447 0 10 148 c10 145 10 147 -12 170
-22 23 -24 24 -111 13 -49 -6 -162 -14 -251 -18 l-163 -6 0 187 0 188 232 -3
c286 -3 268 -14 268 164 0 96 -3 124 -16 138 -15 16 -35 17 -250 12 l-234 -6
0 153 0 153 243 -6 c299 -9 281 -17 272 130 -3 54 -8 117 -11 141 l-5 42 -449
0 -449 0 -19 -25z"/>
</g>
</svg>
