<svg width="20" height="20" viewBox="0 0 20 20" fill="none" xmlns="http://www.w3.org/2000/svg">
<path d="M16.5188 19.4687H3.48125C2.72366 19.4654 1.99813 19.1626 1.46301 18.6263C0.927898 18.09 0.626643 17.3638 0.625 16.6062V6.93121C0.62813 6.41834 0.768998 5.91573 1.03287 5.47593C1.29675 5.03614 1.67394 4.67532 2.125 4.43121L8.63125 0.874962C9.05028 0.646854 9.51978 0.527344 9.99687 0.527344C10.474 0.527344 10.9435 0.646854 11.3625 0.874962L17.8875 4.41246C18.3386 4.65657 18.7158 5.01739 18.9796 5.45718C19.2435 5.89698 19.3844 6.39959 19.3875 6.91246V16.6062C19.3858 17.366 19.0829 18.094 18.5451 18.6307C18.0072 19.1673 17.2785 19.4687 16.5188 19.4687ZM10 1.77496C9.73162 1.77456 9.46738 1.84116 9.23125 1.96871L2.70625 5.51246C2.45316 5.65263 2.24245 5.8583 2.09619 6.10792C1.94994 6.35754 1.87354 6.64191 1.875 6.93121V16.6062C1.875 17.0339 2.04489 17.444 2.34729 17.7464C2.64969 18.0488 3.05984 18.2187 3.4875 18.2187H16.5188C16.9453 18.2171 17.3539 18.0464 17.6549 17.7442C17.956 17.442 18.125 17.0328 18.125 16.6062V6.93121C18.1252 6.64065 18.047 6.35542 17.8984 6.10568C17.7499 5.85595 17.5367 5.65098 17.2812 5.51246L10.7687 1.97496C10.5332 1.84523 10.2689 1.77648 10 1.77496Z" fill="white"/>
<path d="M9.99985 16.7247C9.12989 16.7249 8.28693 16.4226 7.61535 15.8696C6.94376 15.3166 6.48534 14.5473 6.3186 13.6934C6.305 13.6038 6.31105 13.5124 6.33631 13.4254C6.36157 13.3384 6.40544 13.2579 6.46489 13.1895C6.52435 13.1212 6.59795 13.0665 6.68061 13.0294C6.76327 12.9923 6.853 12.9736 6.9436 12.9747C7.0925 12.9725 7.23727 13.0236 7.35186 13.1187C7.46644 13.2138 7.5433 13.3467 7.5686 13.4934C7.68631 14.0553 7.99377 14.5595 8.43934 14.9213C8.88491 15.2832 9.44145 15.4808 10.0155 15.4808C10.5895 15.4808 11.146 15.2832 11.5916 14.9213C12.0372 14.5595 12.3446 14.0553 12.4624 13.4934C12.4876 13.3467 12.5645 13.2138 12.6791 13.1187C12.7937 13.0236 12.9385 12.9725 13.0874 12.9747C13.1779 12.9736 13.2677 12.9923 13.3503 13.0294C13.433 13.0665 13.5066 13.1212 13.5661 13.1895C13.6255 13.2579 13.6694 13.3384 13.6946 13.4254C13.7199 13.5124 13.7259 13.6038 13.7124 13.6934C13.5446 14.5526 13.0816 15.3259 12.4036 15.8795C11.7255 16.4332 10.8752 16.7321 9.99985 16.7247Z" fill="white"/>
</svg>
