<svg width="16" height="16" viewBox="0 0 16 16" fill="none" xmlns="http://www.w3.org/2000/svg">
<g clip-path="url(#clip0_621_9601)">
<path d="M15.9582 6.13717C15.8528 5.81319 15.5655 5.58382 15.2268 5.55318L10.6081 5.13386L8.78275 0.860359C8.64798 0.54639 8.34133 0.34375 8.00002 0.34375C7.65871 0.34375 7.35194 0.54639 7.21802 0.860359L5.39268 5.13386L0.773216 5.55318C0.434587 5.58443 0.147839 5.8138 0.0418805 6.13717C-0.0634679 6.46115 0.0338237 6.8165 0.289931 7.04112L3.78132 10.1026L2.75189 14.6366C2.67657 14.9699 2.80596 15.3147 3.08258 15.5146C3.23126 15.6227 3.40595 15.6766 3.58125 15.6766C3.73188 15.6766 3.88264 15.6366 4.01729 15.556L8.00002 13.1746L11.982 15.556C12.2741 15.7306 12.6415 15.7146 12.9175 15.5146C13.1941 15.3147 13.3235 14.9699 13.2482 14.6366L12.2187 10.1026L15.7101 7.04112C15.9661 6.8165 16.0635 6.46188 15.9582 6.13717Z" fill="#E1C03F"/>
</g>
<defs>
<clipPath id="clip0_621_9601">
<rect width="16" height="16" fill="white"/>
</clipPath>
</defs>
</svg>
